<svg id="圖層_5" data-name="圖層 5" xmlns="http://www.w3.org/2000/svg" viewBox="0 0 583.94 382.68"><defs><style>.cls-1{fill:#7a2c8c;}.cls-2{fill:#7d3091;}</style></defs><title>QITS_Logo_v2</title><path d="M68.52,345.65l3.55-11.85a7.74,7.74,0,0,1-2.25-.5,5.84,5.84,0,0,1-2.38-1.72,11.12,11.12,0,0,1-2-3.73l-6.8-20.7h3l6.5,20.05a7.94,7.94,0,0,0,1.32,2.53A4.6,4.6,0,0,0,71,330.88a3.49,3.49,0,0,0,1.2.35l.55,0,7.5-24.1h3L72.92,340.7l-2.3,4.95Z"/><path d="M98.67,334.1a18.9,18.9,0,0,1-4.88-.57,7.76,7.76,0,0,1-3.57-2,9,9,0,0,1-2.15-4.15,27.78,27.78,0,0,1-.7-6.88,27.33,27.33,0,0,1,.72-6.92,9.17,9.17,0,0,1,2.15-4.13,7.57,7.57,0,0,1,3.55-2,21.88,21.88,0,0,1,9.75,0,7.77,7.77,0,0,1,3.58,2,9.09,9.09,0,0,1,2.17,4.13,33.07,33.07,0,0,1,0,13.82,9.2,9.2,0,0,1-2.15,4.15,7.72,7.72,0,0,1-3.57,2A19.23,19.23,0,0,1,98.67,334.1Zm0-2.45a15.87,15.87,0,0,0,3.6-.37,5.16,5.16,0,0,0,2.65-1.5,7.67,7.67,0,0,0,1.62-3.38,30.91,30.91,0,0,0,0-11.92,7.6,7.6,0,0,0-1.62-3.35,5.16,5.16,0,0,0-2.65-1.5,15.85,15.85,0,0,0-3.6-.38,15.35,15.35,0,0,0-3.6.38,5.26,5.26,0,0,0-2.63,1.5,7.19,7.19,0,0,0-1.62,3.35,32.57,32.57,0,0,0,0,11.92,7.26,7.26,0,0,0,1.62,3.38,5.26,5.26,0,0,0,2.63,1.5A15.39,15.39,0,0,0,98.67,331.65Z"/><path d="M125.22,334.1a8.41,8.41,0,0,1-6-2q-2.1-1.95-2.1-6.25V307.15h2.9v18.1q0,3.71,1.65,5a7.63,7.63,0,0,0,4.75,1.27,15.33,15.33,0,0,0,4.7-.67,22.38,22.38,0,0,0,4.4-2V307.15h2.9V333.8h-2.15l-.75-3a22.9,22.9,0,0,1-4.73,2.33A16.28,16.28,0,0,1,125.22,334.1Z"/><path d="M146.52,333.8V307.15h2.15l.75,4.8a18.38,18.38,0,0,1,4.22-3.65,9.92,9.92,0,0,1,5.38-1.45,12.29,12.29,0,0,1,1.4.08,8.27,8.27,0,0,1,1.2.22v3l-1.35-.2a10.21,10.21,0,0,0-1.5-.1,11.28,11.28,0,0,0-3.48.5,11,11,0,0,0-2.92,1.48,25.46,25.46,0,0,0-3,2.42v19.6Z"/><path d="M180.66,345.65v-38.5h2.25l.66,2.8a17.37,17.37,0,0,1,2.37-1.35,20.15,20.15,0,0,1,3.3-1.25,12.75,12.75,0,0,1,3.42-.5,8.22,8.22,0,0,1,4.48,1.15,9,9,0,0,1,3,3.1,14.54,14.54,0,0,1,1.65,4.35,24.44,24.44,0,0,1,.5,4.95,23.23,23.23,0,0,1-1.08,7.63A9.15,9.15,0,0,1,198,332.6a9,9,0,0,1-5.36,1.5,15.5,15.5,0,0,1-4.7-.77,21.41,21.41,0,0,1-4.39-2v14.3Zm11.36-14a6.72,6.72,0,0,0,3.77-1.07,7.3,7.3,0,0,0,2.6-3.53,18.41,18.41,0,0,0,1-6.65,16.57,16.57,0,0,0-1.05-6.45,7.88,7.88,0,0,0-2.73-3.57,6.31,6.31,0,0,0-3.57-1.13,12.62,12.62,0,0,0-4.65.83c-1.41.55-2.67,1.11-3.8,1.67V329.2a20.68,20.68,0,0,0,4.12,1.78A14.52,14.52,0,0,0,192,331.65Z"/><path d="M209.46,333.8V307.15h2.15l.75,4.8a18.63,18.63,0,0,1,4.23-3.65,9.91,9.91,0,0,1,5.37-1.45,12.15,12.15,0,0,1,1.4.08,7.8,7.8,0,0,1,1.2.22v3l-1.35-.2a10,10,0,0,0-1.5-.1,10.5,10.5,0,0,0-6.4,2,27.27,27.27,0,0,0-2.95,2.42v19.6Z"/><path d="M240.21,334.1a18.87,18.87,0,0,1-4.87-.57,7.85,7.85,0,0,1-3.58-2,9.22,9.22,0,0,1-2.15-4.15,28.27,28.27,0,0,1-.7-6.88,27.27,27.27,0,0,1,.73-6.92,9.17,9.17,0,0,1,2.15-4.13,7.57,7.57,0,0,1,3.55-2,21.88,21.88,0,0,1,9.75,0,7.68,7.68,0,0,1,3.57,2,9,9,0,0,1,2.18,4.13,33.52,33.52,0,0,1,0,13.82,9.2,9.2,0,0,1-2.15,4.15,7.7,7.7,0,0,1-3.58,2A19.12,19.12,0,0,1,240.21,334.1Zm0-2.45a15.75,15.75,0,0,0,3.6-.37,5.12,5.12,0,0,0,2.65-1.5,7.67,7.67,0,0,0,1.63-3.38,31.44,31.44,0,0,0,0-11.92,7.6,7.6,0,0,0-1.63-3.35,5.12,5.12,0,0,0-2.65-1.5,15.72,15.72,0,0,0-3.6-.38,15.47,15.47,0,0,0-3.6.38,5.28,5.28,0,0,0-2.62,1.5,7.29,7.29,0,0,0-1.63,3.35,32.57,32.57,0,0,0,0,11.92,7.36,7.36,0,0,0,1.63,3.38,5.28,5.28,0,0,0,2.62,1.5A15.51,15.51,0,0,0,240.21,331.65Z"/><path d="M270.86,334.1a13.08,13.08,0,0,1-3.62-.5,18.77,18.77,0,0,1-3.15-1.2,23.37,23.37,0,0,1-2.43-1.35L261,333.8h-2.25V295.65h2.9v14.1a23.33,23.33,0,0,1,4.53-2.05,14.38,14.38,0,0,1,4.57-.85,9.76,9.76,0,0,1,5.28,1.33,8.11,8.11,0,0,1,3.22,4.35,24.17,24.17,0,0,1,1.1,8.12,23.52,23.52,0,0,1-.95,7.08,9.54,9.54,0,0,1-3,4.7A8.6,8.6,0,0,1,270.86,334.1Zm-.75-2.45a6.5,6.5,0,0,0,4.08-1.25,7.54,7.54,0,0,0,2.45-3.75,19.66,19.66,0,0,0,.82-6.1,20.13,20.13,0,0,0-.95-7.1,6.1,6.1,0,0,0-2.6-3.3,7.79,7.79,0,0,0-3.8-.9,12.81,12.81,0,0,0-4.42.7,34.45,34.45,0,0,0-4,1.8V329.2a33.43,33.43,0,0,0,3.78,1.68A13.41,13.41,0,0,0,270.11,331.65Z"/><path d="M294.11,333.85a7.41,7.41,0,0,1-3.57-.8,5,5,0,0,1-2.23-2.65,13.93,13.93,0,0,1-.75-5.1V295.65h2.9V325a12.44,12.44,0,0,0,.48,3.95,3.12,3.12,0,0,0,1.4,1.85,6,6,0,0,0,2.12.65l2.9.35v2.05Z"/><path d="M311.81,334.1a13.77,13.77,0,0,1-6.47-1.27,7.17,7.17,0,0,1-3.38-4.28,26.86,26.86,0,0,1-1-8.15,25.38,25.38,0,0,1,1.05-8.2,7,7,0,0,1,3.48-4.15,14.67,14.67,0,0,1,6.47-1.2,16.79,16.79,0,0,1,5.58.78,5.81,5.81,0,0,1,3.25,2.67,10.82,10.82,0,0,1,1.07,5.25,6.73,6.73,0,0,1-.87,3.63,4.92,4.92,0,0,1-2.53,2,11.42,11.42,0,0,1-3.9.6h-10.7a20.07,20.07,0,0,0,.7,5.85,5.31,5.31,0,0,0,2.53,3.2,11.39,11.39,0,0,0,5.37,1h8.8v1.75c-1.6.17-3.11.3-4.52.4S313.68,334.1,311.81,334.1Zm-8-14.4h10.55a6.22,6.22,0,0,0,3.65-.87c.8-.59,1.2-1.68,1.2-3.28a8.64,8.64,0,0,0-.72-3.9,4.05,4.05,0,0,0-2.3-2,12.47,12.47,0,0,0-4.23-.58,11,11,0,0,0-4.92.9,5.05,5.05,0,0,0-2.5,3.2A22.37,22.37,0,0,0,303.81,319.7Z"/><path d="M329.06,333.8V307.15h2.15l.75,3a23.66,23.66,0,0,1,4.65-2.42,15.14,15.14,0,0,1,5.65-1,7.94,7.94,0,0,1,4.3,1.13,7.21,7.21,0,0,1,2.7,2.92,16.07,16.07,0,0,1,3.13-1.9,25.68,25.68,0,0,1,4-1.52,14.14,14.14,0,0,1,4-.63,8.36,8.36,0,0,1,4.68,1.23,7.35,7.35,0,0,1,2.77,3.25,10.75,10.75,0,0,1,.9,4.42v18.2h-2.9v-18a7.1,7.1,0,0,0-.75-3.3,5.8,5.8,0,0,0-2.12-2.3,6.2,6.2,0,0,0-3.33-.85,15,15,0,0,0-5.05.93,28.4,28.4,0,0,0-4.9,2.27,10,10,0,0,1,.48,1.58,8.45,8.45,0,0,1,.17,1.67v18h-2.9v-18a7.1,7.1,0,0,0-.75-3.3,5.83,5.83,0,0,0-2.1-2.3,6,6,0,0,0-3.3-.85,16.2,16.2,0,0,0-3.42.33,14,14,0,0,0-2.95,1c-.95.43-1.94.93-3,1.5V333.8Z"/><path d="M399.46,334.1c-.6,0-1.38,0-2.35-.05l-3.05-.12c-1.07-.05-2-.11-2.9-.18s-1.52-.13-2-.2V331.8h10.65a15.37,15.37,0,0,0,3.23-.3,3.73,3.73,0,0,0,2.15-1.25,4.67,4.67,0,0,0,.77-2.95V326a3.83,3.83,0,0,0-1.3-3.07,6.18,6.18,0,0,0-4.1-1.13H397a13.85,13.85,0,0,1-4.22-.57,5.32,5.32,0,0,1-2.78-2,6.5,6.5,0,0,1-1-3.85v-1.35a7.49,7.49,0,0,1,1-4.05,5.85,5.85,0,0,1,2.95-2.32,13.92,13.92,0,0,1,5.07-.78c.87,0,1.9,0,3.1.08s2.4.11,3.6.2a27.65,27.65,0,0,1,2.9.32v1.8h-10a8.39,8.39,0,0,0-4.45,1c-1,.65-1.55,1.91-1.55,3.77v1.15a4.1,4.1,0,0,0,.73,2.65,3.41,3.41,0,0,0,2,1.18,14.91,14.91,0,0,0,3,.27H401a8.59,8.59,0,0,1,5.58,1.65,5.83,5.83,0,0,1,2,4.8v1.7a6.26,6.26,0,0,1-1.2,4.13,6.16,6.16,0,0,1-3.25,2A18.05,18.05,0,0,1,399.46,334.1Z"/><path d="M425.66,334.1a18.82,18.82,0,0,1-4.87-.57,7.85,7.85,0,0,1-3.58-2,9.12,9.12,0,0,1-2.15-4.15,27.78,27.78,0,0,1-.7-6.88,26.82,26.82,0,0,1,.73-6.92,9.17,9.17,0,0,1,2.15-4.13,7.57,7.57,0,0,1,3.55-2,21.88,21.88,0,0,1,9.75,0,7.78,7.78,0,0,1,3.57,2,9.1,9.1,0,0,1,2.18,4.13,33.52,33.52,0,0,1,0,13.82,9.3,9.3,0,0,1-2.15,4.15,7.75,7.75,0,0,1-3.58,2A19.17,19.17,0,0,1,425.66,334.1Zm0-2.45a15.87,15.87,0,0,0,3.6-.37,5.12,5.12,0,0,0,2.65-1.5,7.78,7.78,0,0,0,1.63-3.38,31.44,31.44,0,0,0,0-11.92,7.71,7.71,0,0,0-1.63-3.35,5.12,5.12,0,0,0-2.65-1.5,15.85,15.85,0,0,0-3.6-.38,15.35,15.35,0,0,0-3.6.38,5.24,5.24,0,0,0-2.62,1.5,7.29,7.29,0,0,0-1.63,3.35,32.57,32.57,0,0,0,0,11.92,7.36,7.36,0,0,0,1.63,3.38,5.24,5.24,0,0,0,2.62,1.5A15.39,15.39,0,0,0,425.66,331.65Z"/><path d="M450.76,333.85a7.41,7.41,0,0,1-3.57-.8A5,5,0,0,1,445,330.4a13.93,13.93,0,0,1-.75-5.1V295.65h2.9V325a12.79,12.79,0,0,0,.47,3.95A3.18,3.18,0,0,0,449,330.8a6,6,0,0,0,2.12.65l2.9.35v2.05Z"/><path d="M465.91,333.8l-10.35-26.65h2.95l9.1,24,9.3-24h2.95L469.21,333.8Z"/><path d="M493.86,334.1a13.77,13.77,0,0,1-6.47-1.27,7.17,7.17,0,0,1-3.38-4.28,26.54,26.54,0,0,1-1-8.15,25.38,25.38,0,0,1,1.05-8.2,7,7,0,0,1,3.48-4.15,14.67,14.67,0,0,1,6.47-1.2,16.69,16.69,0,0,1,5.57.78,5.74,5.74,0,0,1,3.25,2.67,10.7,10.7,0,0,1,1.08,5.25,6.73,6.73,0,0,1-.87,3.63,4.92,4.92,0,0,1-2.53,2,11.42,11.42,0,0,1-3.9.6h-10.7a19.73,19.73,0,0,0,.7,5.85,5.31,5.31,0,0,0,2.53,3.2,11.36,11.36,0,0,0,5.37,1h8.8v1.75c-1.6.17-3.11.3-4.52.4S495.73,334.1,493.86,334.1Zm-8-14.4h10.55a6.24,6.24,0,0,0,3.65-.87c.8-.59,1.2-1.68,1.2-3.28a8.64,8.64,0,0,0-.72-3.9,4.05,4.05,0,0,0-2.3-2,12.47,12.47,0,0,0-4.23-.58,11.1,11.1,0,0,0-4.93.9,5.12,5.12,0,0,0-2.5,3.2A22.78,22.78,0,0,0,485.86,319.7Z"/><path d="M511.11,333.8V307.15h2.15L514,312a18.42,18.42,0,0,1,4.23-3.65,9.91,9.91,0,0,1,5.37-1.45,12.15,12.15,0,0,1,1.4.08,8.27,8.27,0,0,1,1.2.22v3l-1.35-.2a10.21,10.21,0,0,0-1.5-.1,10.5,10.5,0,0,0-6.4,2,26.33,26.33,0,0,0-3,2.42v19.6Z"/><path class="cls-1" d="M508.84,61.13c-4,0-6.52,2.55-6.52,5.4V81.68c0,3.15,2.54,5.4,6.52,5.4h30.79c6.88,0,13,5,13,10.65v43.65c0,6-6.16,10.8-13,10.8H485.48v-14h43.83c3.44,0,6.52-2.55,6.52-5.4V106.28c0-2.85-3.08-5.4-6.52-5.4H498.52c-7.24,0-13-4.65-13-10.65V58c0-5.69,5.8-10.79,13-10.79h54.15V61.13Z"/><path class="cls-2" d="M167.83,74.13v167.4c0,12-11.59,21.6-26.07,21.6h-5.44l7.25,14.7H109.88l-7.24-14.7H59.18c-14.49,0-26.08-9.6-26.08-21.6V74.13c0-11.4,11.59-21,26.08-21h82.58C156.24,53.13,167.83,62.73,167.83,74.13Zm-44.91,161.1c5.8-.9,10.87-5.4,10.87-10.8V91.23c0-5.4-5.43-10.5-13-10.5H80.18c-7.6,0-13,5.1-13,10.5v133.2c0,6,5.44,10.8,13,10.8h8.7l-8.34-18h34.05Z"/><path d="M224.82,263.13v-210H258.5v210Z"/><path d="M448.41,81H398.06v182.1H364.38V81H314V53.13H448.41Z"/></svg>